<?xml version="1.0" encoding="UTF-8"?>
<svg width="2000px" height="1000px" viewBox="0 0 2000 1000" version="1.1" xmlns="http://www.w3.org/2000/svg" xmlns:xlink="http://www.w3.org/1999/xlink">
    <title>Hero BG - Cornflour Blue</title>
    <defs>
        <linearGradient x1="19.4742187%" y1="62.5%" x2="80.0375%" y2="37.5%" id="linearGradient-1">
            <stop stop-color="#3895B6" offset="0%"></stop>
            <stop stop-color="#4AC7F2" offset="100%"></stop>
        </linearGradient>
        <linearGradient x1="70.4344524%" y1="19.7825127%" x2="30.4294273%" y2="81.5634858%" id="linearGradient-2">
            <stop stop-color="#FFFFFF" offset="0%"></stop>
            <stop stop-color="#FFFFFF" stop-opacity="0.0607244318" offset="100%"></stop>
        </linearGradient>
    </defs>
    <g id="Hero-BG---Cornflour-Blue" stroke="none" stroke-width="1" fill="none" fill-rule="evenodd">
        <rect id="Rectangle" fill="url(#linearGradient-1)" x="0" y="0" width="2000" height="1000"></rect>
        <path d="M1998.1372,-207.338415 C1578.49266,-207.338415 1372.12702,140.068827 1206.62177,419.505893 C1035.23511,708.717328 915.646216,884.194218 703.347561,884.194218 L703.347561,1208.5 C1122.9921,1208.5 1329.35774,861.096881 1494.86298,581.656208 C1666.24965,292.449926 1785.83854,116.967883 1998.1372,116.967883 L1998.1372,-207.338415 Z" id="Path" fill="url(#linearGradient-2)" fill-rule="nonzero" opacity="0.400181362"></path>
        <path d="M1297.78354,106.822777 L1096.7546,-209.5 L703.347561,-209.5 L1101.28599,417.359756 C1109.93682,403.126209 1118.53617,388.443671 1127.59895,373.317301 C1177.08379,289.232029 1232.43883,196.247435 1297.78354,106.822777 Z" id="Path" fill="#FFFFFF" fill-rule="nonzero" opacity="0.0973539807"></path>
        <path d="M1405.8628,891.74097 L1606.89174,1208.5 L2000.29878,1208.5 L1601.89691,581.640244 C1593.29757,595.858712 1584.64674,610.520381 1575.58396,626.068449 C1526.09912,709.591 1470.74407,802.884561 1405.8628,892.18417 L1405.8628,891.74097 Z" id="Path" fill="#FFFFFF" fill-rule="nonzero" opacity="0.0973539807"></path>
    </g>
</svg>